<?xml version="1.0" encoding="UTF-8"?>
<svg width="512" height="512" viewBox="0 0 24 24" xmlns="http://www.w3.org/2000/svg">
  <rect width="24" height="24" rx="12" fill="#dc2626"/>
  <path d="M5 3h14a2 2 0 0 1 2 2v14a2 2 0 0 1-2 2H5a2 2 0 0 1-2-2V5a2 2 0 0 1 2-2zm2 13a1 1 0 1 0 0-2 1 1 0 0 0 0 2zm0-3a1 1 0 1 0 0-2 1 1 0 0 0 0 2zm0-3a1 1 0 1 0 0-2 1 1 0 0 0 0 2zm5 6a1 1 0 1 0 0-2 1 1 0 0 0 0 2zm5-3a1 1 0 1 0 0-2 1 1 0 0 0 0 2zm0-3a1 1 0 1 0 0-2 1 1 0 0 0 0 2zm-5-3a1 1 0 1 0 0-2 1 1 0 0 0 0 2z" fill="white"/>
</svg>